<svg width="44" height="43" viewBox="0 0 44 43" fill="none" xmlns="http://www.w3.org/2000/svg">
<path d="M36.91 9.77129C36.91 11.5381 35.4777 12.9703 33.7109 12.9703C31.9441 12.9703 30.5119 11.5381 30.5119 9.77129C30.5119 8.0045 31.9441 6.57224 33.7109 6.57224C35.4777 6.57224 36.91 8.0045 36.91 9.77129Z" fill="#EAE6DB"/>
<path fill-rule="evenodd" clip-rule="evenodd" d="M21.9811 32.1647C27.8704 32.1647 32.6446 27.3904 32.6446 21.5011C32.6446 15.6119 27.8704 10.8376 21.9811 10.8376C16.0918 10.8376 11.3176 15.6119 11.3176 21.5011C11.3176 27.3904 16.0918 32.1647 21.9811 32.1647ZM21.9811 27.8993C25.5146 27.8993 28.3792 25.0347 28.3792 21.5011C28.3792 17.9676 25.5146 15.103 21.9811 15.103C18.4475 15.103 15.583 17.9676 15.583 21.5011C15.583 25.0347 18.4475 27.8993 21.9811 27.8993Z" fill="#EAE6DB"/>
<path fill-rule="evenodd" clip-rule="evenodd" d="M0.654053 20.6481C0.654053 13.4815 0.654053 9.89824 2.04876 7.16098C3.27557 4.75322 5.23314 2.79565 7.6409 1.56884C10.3782 0.174133 13.9614 0.174133 21.128 0.174133H22.8341C30.0007 0.174133 33.584 0.174133 36.3212 1.56884C38.729 2.79565 40.6866 4.75322 41.9134 7.16098C43.3081 9.89824 43.3081 13.4815 43.3081 20.6481V22.3542C43.3081 29.5208 43.3081 33.104 41.9134 35.8413C40.6866 38.2491 38.729 40.2066 36.3212 41.4335C33.584 42.8282 30.0007 42.8282 22.8341 42.8282H21.128C13.9614 42.8282 10.3782 42.8282 7.6409 41.4335C5.23314 40.2066 3.27557 38.2491 2.04876 35.8413C0.654053 33.104 0.654053 29.5208 0.654053 22.3542V20.6481ZM21.128 4.43954H22.8341C26.4878 4.43954 28.9715 4.44285 30.8913 4.59971C32.7613 4.75249 33.7177 5.02943 34.3848 5.36934C35.99 6.18722 37.295 7.49226 38.1129 9.09744C38.4528 9.76454 38.7297 10.7209 38.8825 12.5909C39.0394 14.5107 39.0427 16.9944 39.0427 20.6481V22.3542C39.0427 26.0079 39.0394 28.4916 38.8825 30.4114C38.7297 32.2814 38.4528 33.2378 38.1129 33.9049C37.295 35.51 35.99 36.8151 34.3848 37.633C33.7177 37.9729 32.7613 38.2498 30.8913 38.4026C28.9715 38.5594 26.4878 38.5628 22.8341 38.5628H21.128C17.4743 38.5628 14.9906 38.5594 13.0708 38.4026C11.2008 38.2498 10.2445 37.9729 9.57736 37.633C7.97218 36.8151 6.66713 35.51 5.84926 33.9049C5.50935 33.2378 5.23241 32.2814 5.07963 30.4114C4.92277 28.4916 4.91946 26.0079 4.91946 22.3542V20.6481C4.91946 16.9944 4.92277 14.5107 5.07963 12.5909C5.23241 10.7209 5.50935 9.76454 5.84926 9.09744C6.66713 7.49226 7.97218 6.18722 9.57736 5.36934C10.2445 5.02943 11.2008 4.75249 13.0708 4.59971C14.9906 4.44285 17.4743 4.43954 21.128 4.43954Z" fill="#EAE6DB"/>
</svg>
