<svg width="46" height="28" viewBox="0 0 46 28" fill="none" xmlns="http://www.w3.org/2000/svg">
<path d="M38.4031 16.9103C37.9199 16.2547 37.8116 15.591 38.0757 14.9186C38.7346 13.1245 48.3308 1.72966 44.3332 1.72966C41.5861 1.76618 38.2825 1.72966 35.6489 1.72966C35.16 1.84867 34.8437 2.10525 34.6457 2.62728C33.1057 6.17832 31.2212 10.5118 28.4593 13.2969C28.0959 13.5899 27.8693 13.5774 27.4554 13.4691C25.518 11.4294 27.5838 4.44137 26.4056 1.68015C26.1734 1.13966 25.6652 0.895542 25.1451 0.758076C22.5149 0.131218 16.5076 0.504344 15.5274 1.76618C15.2473 2.12689 15.2082 2.32374 15.4104 2.35612C16.3443 2.50346 17.0055 2.85591 17.3946 3.41313C18.1286 5.02968 18.6696 13.6407 16.5076 13.6407C14.3456 13.6407 10.8593 5.18991 9.90161 2.84721C9.64674 2.14183 8.99793 1.73744 8.31429 1.61806L1.91817 1.66698C0.793885 1.66698 0.165545 2.22157 0.564035 3.3389C3.89541 11.6083 11.1856 27.6371 22.3669 27.2358C23.487 27.2358 25.4139 27.6658 26.2887 26.6947C27.4909 25.0998 26.0247 22.2593 28.0862 21.1761C28.606 20.8994 29.1449 21.1313 29.5916 21.4714C31.8845 23.2174 33.1019 26.2819 35.9296 27.2122C36.4268 27.376 36.8625 27.417 37.2365 27.3351L43.2122 27.2369C44.3217 27.2369 45.4146 26.7433 45.185 25.4169C44.3138 22.5726 40.8422 19.6488 38.4031 16.9103Z" fill="#EAE6DB"/>
</svg>
